<svg width="153" height="30" viewBox="0 0 153 30" fill="none" xmlns="http://www.w3.org/2000/svg">
<path d="M10.4724 29C19.0912 29 24.4227 23.6823 24.4227 14.8425C24.4227 6.01657 19.0912 0.712706 10.4862 0.712706H0.11326V29H10.4724ZM6.77072 23.3094V6.40331H10.1409C15.0856 6.40331 17.7376 8.70994 17.7376 14.8425C17.7376 20.9889 15.0856 23.3094 10.2099 23.3094H6.77072ZM32.4931 29L34.3991 22.9641H44.261L46.1671 29H53.3356L43.75 0.712706H34.9102L25.3245 29H32.4931ZM36.0152 17.8674L39.2196 7.71547H39.4406L42.645 17.8674H36.0152ZM51.8775 0.712706L62.2229 19.442V29H68.8389V19.442L79.198 0.712706H71.7394L65.6621 12.605H65.4135L59.3361 0.712706H51.8775ZM106.66 14.8564C106.66 5.53315 100.776 0.325965 93.2072 0.325965C85.5829 0.325965 79.7541 5.53315 79.7541 14.8564C79.7541 24.1381 85.5829 29.3867 93.2072 29.3867C100.776 29.3867 106.66 24.1796 106.66 14.8564ZM86.5497 14.8564C86.5497 9.23481 89.0773 6.18232 93.2072 6.18232C97.337 6.18232 99.8508 9.23481 99.8508 14.8564C99.8508 20.4779 97.337 23.5304 93.2072 23.5304C89.0773 23.5304 86.5497 20.4779 86.5497 14.8564ZM110.543 29H117.2V17.5635H128.499V12.1354H117.2V6.1547H129.728V0.712706H110.543V29ZM133.082 29H139.739V17.5635H151.038V12.1354H139.739V6.1547H152.267V0.712706H133.082V29Z" fill="black"/>
</svg>
